<?xml version="1.0" encoding="utf-8"?>
<!-- Generator: Adobe Illustrator 22.0.1, SVG Export Plug-In . SVG Version: 6.00 Build 0)  -->
<svg version="1.1" id="Layer_1" xmlns="http://www.w3.org/2000/svg" xmlns:xlink="http://www.w3.org/1999/xlink" x="0px" y="0px"
	 width="200px" height="30px" viewBox="0 0 878.9 150.8" style="enable-background:new 0 0 878.9 150.8;" xml:space="preserve">
<style type="text/css">
	.st0{stroke:#EC1946;stroke-width:3.0209;stroke-miterlimit:10;}
</style>
<g>
	<path class="st0" d="M479.6,66.8"/>
	<polyline points="14.3,14.2 36.7,36.6 36.7,115.7 74.7,115.7 95.6,136.7 14.2,136.7 14.2,14.3 	"/>
	<rect x="106.7" y="36.6" width="22.2" height="100.1"/>
	<polygon points="200.3,52.9 166.3,52.9 166.3,75.4 197.3,75.4 197.3,93.2 166.3,93.2 166.3,136.7 145,136.7 145,36.6 200.3,36.6 	
		"/>
	<polygon points="270.9,52.9 234.6,52.9 234.6,75.4 269.3,75.4 269.3,93.2 234.6,93.2 234.6,119.3 270.9,119.3 270.9,136.7 
		212.4,136.7 212.4,36.6 270.9,36.6 	"/>
	<polygon points="398,14.3 398,136.5 377.2,115.7 377.2,80.2 363.7,80.2 341.6,58.2 377.2,58.2 377.2,36.6 341.6,36.6 319.3,14.3 	
		"/>
	<path d="M546.9,36.6h-19.5l-42.5,100.1h23.9l7.8-20.9h39.8l8.1,20.8l23.8,0.2L546.9,36.6z M522.9,98.3l12.9-34.9l13.6,34.9H522.9z"
		/>
	<path d="M457.6,95.7c15.1-3.9,22-15.3,22-28.8c0-16.7-10.6-30.3-34.2-30.3h-33.5v100.1h22.2V97.1l26.5,39.6h26.2L457.6,95.7z
		 M437.9,81.4h-3.8V52.3h3.8c17.5,0,18.8,6.5,18.8,14.6C456.7,74.9,455.4,81.4,437.9,81.4z"/>
	<polygon points="648.9,98.3 623.4,36.6 606.2,36.6 588.1,136.7 609.9,136.7 620.4,74.9 643.7,136.7 654.2,136.7 677.5,74.9 
		688,136.7 709.8,136.7 691.7,36.6 674.5,36.6 	"/>
	<polygon points="776,52.9 739.7,52.9 739.7,75.4 774.3,75.4 774.3,93.2 739.7,93.2 739.7,119.3 776,119.3 776,136.7 717.4,136.7 
		717.4,36.6 776,36.6 	"/>
	<path d="M835.5,95.7c15.1-3.9,22-15.3,22-28.8c0-16.7-10.6-30.3-34.2-30.3h-33.5v100.1h22.2V97.1l26.5,39.6h26.2L835.5,95.7z
		 M815.8,81.4h-3.8V52.3h3.8c17.5,0,18.8,6.5,18.8,14.6C834.6,74.9,833.3,81.4,815.8,81.4z"/>
</g>
</svg>
